<?xml version="1.0" standalone="no"?>
<svg viewBox="0 0 200 200" xmlns="http://www.w3.org/2000/svg">
  <path fill="#FF0066" d="M36.7,-65C49,-56.4,61.4,-49.5,66.9,-38.9C72.5,-28.4,71.2,-14.2,68.4,-1.6C65.7,11,61.5,22.1,56.6,33.7C51.6,45.2,45.8,57.3,36.3,67.5C26.7,77.6,13.4,85.8,0.9,84.2C-11.5,82.6,-23,71.1,-35.1,62.4C-47.1,53.7,-59.8,47.8,-70.6,37.9C-81.5,27.9,-90.4,14,-90.9,-0.3C-91.3,-14.5,-83.2,-28.9,-74.1,-41.9C-65.1,-54.9,-55,-66.3,-42.5,-74.8C-30,-83.3,-15,-88.8,-1.4,-86.3C12.2,-83.9,24.4,-73.6,36.7,-65Z" transform="translate(100 100)" />
</svg>
